<?xml version="1.0" encoding="utf-8"?>
<!-- Generator: Adobe Illustrator 24.1.0, SVG Export Plug-In . SVG Version: 6.00 Build 0)  -->
<svg version="1.1" id="Capa_1" xmlns="http://www.w3.org/2000/svg" xmlns:xlink="http://www.w3.org/1999/xlink" x="0px" y="0px"
	 viewBox="0 0 300 180" style="enable-background:new 0 0 300 180;" xml:space="preserve">
<style type="text/css">
	.st0{fill:#999999;}
	.st1{fill:#B10012;}
	.st2{fill:#666666;}
	.st3{fill:#FFFFFF;}
	.st4{fill:#989898;}
	.st5{fill:#EDEEF0;}
	.st6{fill:#EEEEEE;}
	.st7{fill:none;}
	.st8{fill:none;stroke:#B10012;}
	.st9{fill:#444444;}
	.st10{fill:#444444;stroke:#444444;stroke-width:1.2941;stroke-miterlimit:10;}
	.st11{fill:#444444;stroke:#444444;stroke-width:1.2941;}
	.st12{fill:#333333;}
	.st13{fill:#000222;}
	.st14{fill:#55ACEE;}
	.st15{fill:#222222;}
	.st16{fill:#3B5998;}
	.st17{fill:#448AFF;}
	.st18{fill:#25D366;}
	.st19{fill:#DDDDDD;}
</style>
<g>
	<path class="st0" d="M75,39.4l1,0.2c2.7,0.6,3,3.3,3,4.4v5v0.8l0.2,0.2h-8.4l0.2-0.2V49v-5c0-1.1,0.3-3.7,3-4.4L75,39.4 M75,35.5
		c-0.8,0-1.5,0.7-1.5,1.5v0.7C70.6,38.4,69,40.9,69,44v5l-2,2v1h16v-1l-2-2v-5c0-3.1-1.6-5.6-4.5-6.3V37
		C76.5,36.2,75.8,35.5,75,35.5L75,35.5z M77,53h-4c0,1.1,0.9,2,2,2S77,54.1,77,53L77,53z"/>
</g>
<g>
	<path class="st1" d="M104.9,39.2l1,0.2c2.7,0.6,3,3.3,3,4.4v5v0.8l0.2,0.2h-8.4l0.2-0.2v-0.8v-5c0-1.1,0.3-3.7,3-4.4L104.9,39.2
		 M104.9,35.2c-0.8,0-1.5,0.7-1.5,1.5v0.7c-2.9,0.7-4.5,3.2-4.5,6.3v5l-2,2v1h16v-1l-2-2v-5c0-3.1-1.6-5.6-4.5-6.3v-0.7
		C106.4,36,105.8,35.2,104.9,35.2L104.9,35.2z M110.8,35.5l-1.4,1.4c2,1.4,3.3,3.7,3.5,6.4h2C114.8,40,113.2,37.2,110.8,35.5
		L110.8,35.5z M99.2,35.5c-2.4,1.8-4,4.7-4.1,7.8h2c0.1-2.7,1.4-5,3.5-6.4L99.2,35.5L99.2,35.5z M106.8,52.8h-4c0.1,1.1,1,2,2.1,2
		c0.1,0,0.3,0,0.4,0c0.6-0.1,1.2-0.6,1.4-1.2C106.8,53.3,106.8,53,106.8,52.8L106.8,52.8z"/>
</g>
<g>
	<path class="st0" d="M105.1,19.9c2.7,0,4.9-2.2,4.9-4.9s-2.2-4.9-4.9-4.9s-4.9,2.2-4.9,4.9C100.2,17.6,102.4,19.8,105.1,19.9z"/>
	<path class="st0" d="M105.1,22.5c-2.9,0-8.6,1.3-9.8,3.9c2.6,2.2,6,3.6,9.7,3.6s7.1-1.4,9.7-3.6C113.6,23.8,108.1,22.5,105.1,22.5z
		"/>
</g>
<path id="_Trazado_compuesto_" class="st0" d="M18.8,48.3H18L17.7,48c2.3-2.7,2-6.8-0.7-9.2c-2.7-2.3-6.8-2-9.2,0.7
	c-2.3,2.7-2,6.8,0.7,9.2c2.4,2.1,6,2.1,8.5,0l0.3,0.3v0.8l5,5l1.5-1.5L18.8,48.3z M12.8,48.3c-2.5,0-4.5-2-4.5-4.5s2-4.5,4.5-4.5
	s4.5,2,4.5,4.5C17.3,46.2,15.3,48.3,12.8,48.3L12.8,48.3z"/>
<path class="st2" d="M6,21h18v-2H6V21z M6,16h18v-2H6V16z M6,9v2h18V9H6z"/>
<path id="_Trazado_compuesto__1_" class="st1" d="M48.8,48.3H48L47.7,48c2.3-2.7,2-6.8-0.7-9.2c-2.7-2.3-6.8-2-9.2,0.7
	c-2.3,2.7-2,6.8,0.7,9.2c2.4,2.1,6,2.1,8.5,0l0.3,0.3v0.8l5,5l1.5-1.5L48.8,48.3z M42.8,48.3c-2.5,0-4.5-2-4.5-4.5s2-4.5,4.5-4.5
	s4.5,2,4.5,4.5C47.3,46.2,45.3,48.3,42.8,48.3L42.8,48.3z"/>
<polygon class="st0" points="52.1,9.3 50.7,7.9 45,13.6 39.3,7.9 37.9,9.3 43.6,15 37.9,20.7 39.3,22.1 45,16.4 50.7,22.1 
	52.1,20.7 46.4,15 "/>
<polygon class="st3" points="82.1,9.3 80.7,7.9 75,13.6 69.3,7.9 67.9,9.3 73.6,15 67.9,20.7 69.3,22.1 75,16.4 80.7,22.1 
	82.1,20.7 76.4,15 "/>
<path id="XMLID_1_" class="st3" d="M22.2,71.2c0,0.2,0,0.3,0,0.5c0,4.9-3.7,10.5-10.5,10.5c-2.1,0-4-0.6-5.7-1.7
	c0.3,0,0.6,0.1,0.9,0.1c1.7,0,3.3-0.6,4.6-1.6c-1.6,0-3-1.1-3.4-2.6c0.2,0,0.5,0.1,0.7,0.1c0.3,0,0.7,0,1-0.1c-1.7-0.3-3-1.8-3-3.6
	l0,0c0.5,0.3,1.1,0.4,1.7,0.5c-1-0.7-1.6-1.8-1.6-3.1c0-0.7,0.2-1.3,0.5-1.9c1.8,2.2,4.5,3.7,7.6,3.9c-0.1-0.3-0.1-0.6-0.1-0.8
	c0-2,1.7-3.7,3.7-3.7c1.1,0,2,0.4,2.7,1.2c0.7-0.3,1.5-0.6,2.2-1c-0.3,0.9-0.9,1.6-1.6,2c0.7-0.1,1.5-0.3,2.1-0.6
	C23.5,70.2,22.9,70.8,22.2,71.2z"/>
<path id="XMLID_2_" class="st3" d="M50,69.1h-2.9c-0.3,0-0.7,0.4-0.7,1v2.1H50l-0.5,2.9h-3V84h-3.4v-8.8H40v-2.9h3.1v-1.7
	c0-2.6,1.7-4.6,4-4.6H50V69.1z"/>
<path class="st3" d="M83.8,71.2c0,0-0.1-1.4-0.7-1.9c-0.7-0.8-1.4-0.8-1.8-0.8c-2.5-0.3-6.3-0.3-6.3-0.3l0,0c0,0-3.8,0-6.3,0.2
	c-0.4,0-1.1,0-1.8,0.8c-0.5,0.6-0.8,1.9-0.8,1.9S66,72.8,66,74.2v1.5c0,1.6,0.2,3.1,0.2,3.1s0.2,1.3,0.7,1.9
	c0.7,0.8,1.6,0.8,1.9,0.8c1.5,0.1,6.2,0.2,6.2,0.2s3.8,0,6.3-0.2c0.4-0.1,1.1-0.1,1.8-0.8c0.5-0.6,0.7-1.9,0.7-1.9s0.2-1.6,0.2-3.1
	v-1.5C84,72.8,83.8,71.2,83.8,71.2z M72.8,78.4v-6.8l5.6,3.4L72.8,78.4z"/>
<g>
	<path class="st3" d="M105,70.3c-2.5,0-4.6,2.1-4.6,4.6s2.1,4.6,4.6,4.6s4.6-2.1,4.6-4.6S107.6,70.3,105,70.3z M105,78
		c-1.6,0-3-1.3-3-3c0-1.6,1.3-3,3-3s3,1.3,3,3C108,76.6,106.7,78,105,78z"/>
	<circle class="st3" cx="109.9" cy="70.2" r="1.1"/>
	<path class="st3" d="M112.6,67.4c-0.9-1-2.3-1.5-3.8-1.5h-7.5c-3.2,0-5.3,2.1-5.3,5.3v7.5c0,1.6,0.5,2.9,1.5,3.9
		c1,0.9,2.3,1.4,3.8,1.4h7.4c1.6,0,2.9-0.5,3.8-1.4c1-0.9,1.5-2.3,1.5-3.8v-7.5C114,69.8,113.5,68.4,112.6,67.4z M112.5,78.8
		c0,1.1-0.4,2-1.1,2.6s-1.6,0.9-2.6,0.9h-7.4c-1.1,0-2-0.3-2.6-0.9c-0.7-0.7-1-1.6-1-2.7v-7.4c0-1.1,0.3-2,1-2.6
		c0.6-0.6,1.6-0.9,2.6-0.9h7.5c1.1,0,2,0.3,2.6,1s1,1.6,1,2.6V78.8L112.5,78.8z"/>
</g>
<g id="XMLID_2678_">
	<g id="XMLID_2692_">
		<path id="XMLID_2716_" class="st4" d="M10,94c-3.3,0-6,2.7-6,6s2.7,6,6,6s6-2.7,6-6S13.3,94,10,94z M12.2,102.3l-0.2,0.2
			c-0.2,0.2-0.4,0.2-0.6,0l-2.3-1.9C9,100.4,9,100.2,9,99.9l0.2-3.5c0-0.2,0.2-0.4,0.4-0.4h0.2c0.2,0,0.4,0.2,0.4,0.4l0.2,3
			c0,0.2,0.2,0.5,0.2,0.6l1.6,1.8C12.3,102,12.3,102.2,12.2,102.3z"/>
	</g>
</g>
<g>
	<g id="Capa_1-2">
		<polygon class="st5" points="56,99 51,99 51,94 49,94 49,99 44,99 44,101 49,101 49,106 51,106 51,101 56,101 		"/>
	</g>
</g>
<g>
	<g id="Capa_1-2_1_">
		<polygon class="st1" points="76,99 71,99 71,94 69,94 69,99 64,99 64,101 69,101 69,106 71,106 71,101 76,101 		"/>
	</g>
</g>
<g id="Capa_2_1_">
	<g id="Capa_1-2_2_">
		<rect x="84" y="99" class="st6" width="12" height="2"/>
	</g>
</g>
<g id="Capa_2_2_">
	<g id="Capa_1-2_3_">
		<rect x="104" y="99" class="st1" width="12" height="2"/>
	</g>
</g>
<g id="XMLID_3_">
	<g id="XMLID_4_">
		<path id="XMLID_5_" class="st3" d="M30,94c-3.3,0-6,2.7-6,6s2.7,6,6,6s6-2.7,6-6S33.3,94,30,94z M32.2,102.3l-0.2,0.2
			c-0.2,0.2-0.4,0.2-0.6,0l-2.3-1.9c-0.2-0.2-0.2-0.4-0.2-0.6l0.2-3.5c0-0.2,0.2-0.4,0.4-0.4h0.2c0.2,0,0.4,0.2,0.4,0.4l0.2,3
			c0,0.2,0.2,0.5,0.2,0.6l1.6,1.8C32.3,102,32.3,102.2,32.2,102.3z"/>
	</g>
</g>
<g transform="translate(-2 -2)">
	<path class="st7" d="M152,32c6.1,0,11-4.9,11-11c-0.1-6-5-10.9-11-11c-6,0.1-10.9,5-11,11C141,27.1,145.9,32,152,32z M152,37.5
		c-7.4,0-22,3.6-22,11V54h44v-5.5C174,41.3,159.4,37.5,152,37.5z"/>
	<path class="st1" d="M152,13c-2,0-4,0.9-5.6,2.4S144,18.9,144,21s0.8,4.1,2.4,5.6s3.5,2.4,5.6,2.4s4.1-0.8,5.6-2.4s2.4-3.5,2.4-5.6
		s-0.9-4.1-2.4-5.6C156,13.9,154,13,152,13 M152,40.5c-3.2,0-8.3,0.8-12.7,2.5c-2.1,0.8-3.8,1.8-4.9,2.8c-1.4,1.3-1.4,2.3-1.4,2.7
		V51h38v-2.5c0-1.8-2.4-3.8-6.3-5.4C160.2,41.3,155.1,40.5,152,40.5 M152,10c5.8,0,11,5,11,11s-4.9,11-11,11s-11-5-11-11
		S146.2,10,152,10z M152,37.5c7.4,0,22,3.9,22,11V54h-44v-5.5C130,41.1,144.6,37.5,152,37.5z"/>
</g>
<g transform="translate(-600.5 -136.5)">
	<g transform="translate(601 137)">
		<g transform="translate(-1688.022 70.591)">
			<path class="st1" d="M1915.1-18.8H1880c-2.2,0-4.1-1.8-4.1-4.1v-40.2v-0.2h0.2h36.5h0.2v0.2v4.5h6h0.2v0.2v35.5
				C1919.1-20.7,1917.3-18.8,1915.1-18.8z M1912.9-56.8v33.9c0,1.2,1,2.2,2.2,2.2s2.2-1,2.2-2.2v-33.9H1912.9z M1877.8-61.5v38.6
				c0,1.2,1,2.2,2.2,2.2h31.7c-0.4-0.7-0.7-1.4-0.7-2.2v-38.6H1877.8z"/>
			<path class="st1" d="M1876.2-63.1v40.2c0,2.1,1.7,3.8,3.8,3.8h35.1c2.1,0,3.8-1.7,3.8-3.8v-35.5h-6.3v-4.7H1876.2 M1912.2-20.4
				H1880c-1.4,0-2.5-1.1-2.5-2.5v-38.8h33.8v38.8C1911.3-22,1911.6-21.1,1912.2-20.4 M1915.1-20.4c-1.4,0-2.5-1.1-2.5-2.5V-57h4.9
				v34.1C1917.5-21.5,1916.4-20.4,1915.1-20.4 M1875.7-63.6h0.5h36.5h0.5v0.5v4.2h5.8h0.5v0.5v35.5c0,2.4-1.9,4.3-4.3,4.3H1880
				c-2.4,0-4.3-1.9-4.3-4.3v-40.2V-63.6z M1910.8-61.2H1878v38.3c0,1.1,0.9,2,2,2h31.3c-0.3-0.6-0.5-1.3-0.5-2V-61.2z M1917-56.5
				h-3.9v33.6c0,1.1,0.9,2,2,2s2-0.9,2-2L1917-56.5L1917-56.5z"/>
		</g>
	</g>
	<g transform="translate(606.176 140.882)">
		<rect x="188.1" y="7.5" class="st1" width="25.9" height="3.9"/>
		<rect x="188.6" y="8" class="st8" width="24.9" height="2.9"/>
	</g>
	<g transform="translate(606.176 147.353)">
		<rect x="188.1" y="7.5" class="st1" width="11.6" height="12.9"/>
		<rect x="188.6" y="8" class="st8" width="10.6" height="11.9"/>
	</g>
	<g transform="translate(606.176 173.235)">
		<rect x="188.1" y="7.5" class="st1" width="9.1" height="2.6"/>
		<rect x="188.6" y="8" class="st8" width="8.1" height="1.6"/>
	</g>
	<g transform="translate(606.176 162.882)">
		<rect x="188.1" y="7.5" class="st1" width="11.6" height="2.6"/>
		<rect x="188.6" y="8" class="st8" width="10.6" height="1.6"/>
	</g>
	<g transform="translate(606.176 168.059)">
		<rect x="188.1" y="7.5" class="st1" width="11.6" height="2.6"/>
		<rect x="188.6" y="8" class="st8" width="10.6" height="1.6"/>
	</g>
	<g transform="translate(620.412 147.353)">
		<rect x="188.1" y="7.5" class="st1" width="11.6" height="2.6"/>
		<rect x="188.6" y="8" class="st8" width="10.6" height="1.6"/>
	</g>
	<g transform="translate(620.412 152.529)">
		<rect x="188.1" y="7.5" class="st1" width="11.6" height="2.6"/>
		<rect x="188.6" y="8" class="st8" width="10.6" height="1.6"/>
	</g>
	<g transform="translate(620.412 157.706)">
		<rect x="188.1" y="7.5" class="st1" width="7.8" height="2.6"/>
		<rect x="188.6" y="8" class="st8" width="6.8" height="1.6"/>
	</g>
	<g transform="translate(620.412 162.882)">
		<rect x="188.1" y="7.5" class="st1" width="11.6" height="2.6"/>
		<rect x="188.6" y="8" class="st8" width="10.6" height="1.6"/>
	</g>
	<g transform="translate(620.412 168.059)">
		<rect x="188.1" y="7.5" class="st1" width="11.6" height="2.6"/>
		<rect x="188.6" y="8" class="st8" width="10.6" height="1.6"/>
	</g>
	<g transform="translate(620.412 173.235)">
		<rect x="188.1" y="7.5" class="st1" width="10.4" height="2.6"/>
		<rect x="188.6" y="8" class="st8" width="9.4" height="1.6"/>
	</g>
</g>
<path class="st1" d="M287.6,12.4h-35.2c-2.4,0-4.4,1.9-4.4,4.2c0,0.1,0,0.1,0,0.2v26.4c0,2.4,1.9,4.4,4.2,4.4c0.1,0,0.1,0,0.2,0
	h35.2c2.4,0,4.4-1.9,4.4-4.2c0-0.1,0-0.1,0-0.2V16.8c0-2.4-1.9-4.4-4.2-4.4C287.7,12.4,287.7,12.4,287.6,12.4z M288.9,44.5h-37.8V30
	h37.8V44.5z M288.9,21.2h-37.8v-5.7h37.8V21.2z"/>
<g transform="translate(0.062 -0.015)">
	<path class="st9" d="M163.6,78.9c-4.9-1.6-10.3,0.4-13,4.7l-0.6,0.8l-0.6-0.8c-3.6-5.4-10.8-6.8-16.3-3.3c-5.3,3.5-6.8,10.6-3.4,16
		c0,0.1,0.1,0.1,0.1,0.2c3.6,5.4,10.8,6.8,16.1,3.3l0,0c1.3-0.8,2.4-1.9,3.2-3.2l0.6-0.8l0.6,0.8c0.1,0.2,0.3,0.4,0.4,0.6
		c2.1,3,5.6,4.7,9.2,4.7c1.2,0,2.4-0.2,3.5-0.6c6.2-1.8,9.7-8.3,7.9-14.5l0,0C170.3,82.9,167.4,79.9,163.6,78.9L163.6,78.9z
		 M144.2,93.1c-1.6,2.5-5,3.2-7.5,1.6s-3.2-5-1.6-7.5c0.7-1.1,1.8-1.9,3-2.2c0.5-0.2,1.1-0.3,1.7-0.3c1.8,0,3.4,0.9,4.4,2.4l2,3
		L144.2,93.1z M161.7,95.2c-2.3,0.7-4.8-0.2-6-2.2l-1.1-1.7l-0.9-1.4l2-3c1.6-2.5,5-3.2,7.5-1.6s3.2,5,1.6,7.5
		c0,0.1-0.1,0.1-0.1,0.2C164,94.1,163,94.9,161.7,95.2L161.7,95.2z"/>
	<path class="st3" d="M154.6,91.4l-3.8,5.6c-0.1-0.2-0.3-0.4-0.4-0.6l-0.6-0.8l3.8-5.6L154.6,91.4z"/>
	<path class="st3" d="M150,84.4l-3.8,5.6c-0.1-0.2-0.3-0.4-0.4-0.6l-0.6-0.8L149,83L150,84.4z"/>
</g>
<g transform="translate(-4981.864 -1729.198)">
	<path class="st10" d="M5209.5,1841.2h-35.4c-1.5-0.1-2.7-1.3-2.8-2.8v-24.9c0-0.9,0.4-1.7,1.1-2.2l17.7-13.6c1-0.7,2.3-0.7,3.3,0
		l17.7,13.6c0.7,0.6,1,1.4,1.1,2.2v24.9C5212.3,1840,5211.1,1841.2,5209.5,1841.2C5209.6,1841.2,5209.6,1841.2,5209.5,1841.2
		L5209.5,1841.2z M5191.9,1798.6c-0.3,0-0.6,0.1-0.9,0.3l-17.8,13.6c-0.3,0.2-0.5,0.6-0.5,1.1v24.9c0,0.7,0.5,1.2,1.2,1.3h0.1h35.4
		c0.7,0,1.2-0.5,1.3-1.2v-0.1l0,0v-24.9c0-0.4-0.2-0.8-0.5-1.1l0,0l-17.7-13.6C5192.3,1798.8,5192.1,1798.7,5191.9,1798.6
		L5191.9,1798.6z"/>
	<path class="st3" d="M5204.9,1817.7h-0.7v-16.5H5175v13.4h-0.6v-14.1h30.6L5204.9,1817.7L5204.9,1817.7z"/>
	<path class="st3" d="M5174.5,1800.9h30.1v16.8l-12.7,8.8l-17.3-11.9v-13.7L5174.5,1800.9L5174.5,1800.9z"/>
	<path class="st11" d="M5191.9,1827.3c-0.1,0-0.3-0.1-0.4-0.1l-17.4-11.8c-0.2-0.1-0.3-0.3-0.3-0.5v-13.7c0-0.3,0.2-0.6,0.5-0.6
		h30.1c0.3,0,0.6,0.2,0.6,0.5v16.9c0,0.2-0.1,0.4-0.3,0.5l-10.8,7C5193.3,1826.1,5192.6,1826.7,5191.9,1827.3z M5175.2,1814.3
		l16.7,11.5l12-8.3v-15.8h-28.7V1814.3z"/>
	<path class="st3" d="M5179.6,1805.1h29.8v9.1l-17.6,12.3l-12.2-8.4L5179.6,1805.1L5179.6,1805.1z"/>
	<path class="st11" d="M5191.9,1827.3c-0.1,0-0.3-0.1-0.4-0.1l-12.3-8.4c-0.2-0.1-0.3-0.3-0.3-0.5v-13.1c0-0.3,0.2-0.6,0.5-0.6h30.1
		c0.3,0,0.6,0.2,0.6,0.5v9.2c0,0.2-0.1,0.4-0.3,0.5l-17.6,12.3C5192.1,1827.2,5192,1827.3,5191.9,1827.3z M5180.3,1817.7l11.7,8.1
		l16.9-11.8v-8.2h-28.7L5180.3,1817.7L5180.3,1817.7z"/>
	<g transform="translate(4992.869 1740.877)">
		<g transform="translate(0 1.97)">
			<path class="st9" d="M210.3,72.5h-17.5c-0.4,0-0.6-0.3-0.6-0.6c0-0.4,0.3-0.6,0.6-0.6h17.5c0.3,0,0.6,0.2,0.6,0.5v0.1
				C211,72.2,210.7,72.5,210.3,72.5z"/>
		</g>
		<path class="st9" d="M210.3,72h-17.5c-0.4,0-0.6-0.3-0.6-0.6c0-0.4,0.3-0.6,0.6-0.6h17.5c0.3,0,0.6,0.2,0.6,0.5v0.1
			C211,71.6,210.7,72,210.3,72z"/>
		<g transform="translate(0 5.827)">
			<path class="st9" d="M210.3,73.7h-17.5c-0.4,0-0.6-0.3-0.6-0.6c0-0.4,0.3-0.6,0.6-0.6h17.5c0.3,0,0.6,0.2,0.6,0.5l0,0
				C211,73.4,210.7,73.7,210.3,73.7z"/>
		</g>
		<g transform="translate(0.082 7.715)">
			<path class="st9" d="M201.6,74.2h-8.8c-0.4,0-0.6-0.3-0.6-0.6c0-0.4,0.3-0.6,0.6-0.6h8.8c0.3,0,0.6,0.2,0.6,0.5v0.1
				C202.3,73.9,202,74.2,201.6,74.2L201.6,74.2z"/>
		</g>
		<g transform="translate(0 3.858)">
			<path class="st9" d="M210.3,73.1h-17.5c-0.4,0-0.6-0.3-0.6-0.6c0-0.4,0.3-0.6,0.6-0.6h17.5c0.3,0,0.6,0.2,0.6,0.5v0.1
				C211,72.8,210.7,73.1,210.3,73.1z"/>
		</g>
	</g>
	<path class="st10" d="M5198,1831.5c-0.1,0-0.3-0.1-0.4-0.1l-25.3-17.7c-0.3-0.2-0.5-0.6-0.3-1c0.2-0.3,0.6-0.5,0.9-0.3
		c0.1,0,0.1,0.1,0.2,0.1l0,0l25.3,17.6c0.3,0.1,0.4,0.4,0.3,0.7c0,0.1-0.1,0.1-0.1,0.2C5198.3,1831.4,5198.1,1831.5,5198,1831.5
		L5198,1831.5z"/>
	<path class="st10" d="M5191.9,1827.3c-0.3,0-0.6-0.3-0.6-0.6l0,0c0-0.2,0.1-0.4,0.3-0.5l19.2-13.5c0.4-0.2,0.8,0,1,0.3
		c0.1,0.2,0.1,0.5-0.1,0.7c-0.1,0-0.1,0-0.1,0.1l0,0l0,0l-19.1,13.4C5192.3,1827.2,5192.1,1827.2,5191.9,1827.3z"/>
</g>
<path class="st12" d="M263.9,64h-15.1c-1.1,0-2,0.9-2.1,2c0,0,0,0,0,0.1v1.4H246c-1.1,0-2,0.9-2.1,2c0,0,0,0,0,0.1v13.7
	c0,1.5,1.2,2.7,2.7,2.7h16.5c1.5,0,2.7-1.2,2.7-2.7V66.1C266,64.9,265.1,64,263.9,64C264,64,264,64,263.9,64z M264.6,83.3
	c0,0.8-0.6,1.4-1.4,1.4h-16.5c-0.8,0-1.4-0.6-1.4-1.4V69.5c0-0.4,0.3-0.7,0.6-0.7h0.1h0.7v13.7c0,0.4,0.3,0.7,0.6,0.7h0.1
	c0.4,0,0.7-0.3,0.7-0.6v-0.1V66.1c0-0.4,0.3-0.7,0.6-0.7h0.1h15.1c0.4,0,0.7,0.3,0.7,0.6v0.1L264.6,83.3L264.6,83.3z M257.4,73.6
	h5.5c0.2,0,0.3-0.2,0.3-0.3S263,73,262.9,73h-5.5c-0.2,0-0.3,0.2-0.3,0.3S257.2,73.6,257.4,73.6z M257.4,70.9h5.5
	c0.2,0,0.3-0.2,0.3-0.3c0-0.2-0.2-0.3-0.3-0.3h-5.5c-0.2,0-0.3,0.2-0.3,0.3C257.1,70.7,257.2,70.9,257.4,70.9z M257.4,68.1h5.5
	c0.2,0,0.3-0.2,0.3-0.3c0-0.2-0.2-0.3-0.3-0.3h-5.5c-0.2,0-0.3,0.2-0.3,0.3C257.1,68,257.2,68.1,257.4,68.1z M255.3,81.2h-5.5
	c-0.2,0-0.3,0.2-0.3,0.3c0,0.2,0.2,0.3,0.3,0.3h5.5c0.2,0,0.3-0.2,0.3-0.3C255.7,81.3,255.5,81.2,255.3,81.2z M255.3,78.4h-5.5
	c-0.2,0-0.3,0.2-0.3,0.3c0,0.2,0.2,0.3,0.3,0.3h5.5c0.2,0,0.3-0.2,0.3-0.3C255.7,78.6,255.5,78.4,255.3,78.4z M262.9,81.2h-5.5
	c-0.2,0-0.3,0.2-0.3,0.3c0,0.2,0.2,0.3,0.3,0.3h5.5c0.2,0,0.3-0.2,0.3-0.3C263.2,81.3,263.1,81.2,262.9,81.2z M262.9,78.4h-5.5
	c-0.2,0-0.3,0.2-0.3,0.3c0,0.2,0.2,0.3,0.3,0.3h5.5c0.2,0,0.3-0.2,0.3-0.3C263.2,78.6,263.1,78.4,262.9,78.4z M262.9,75.7h-13.1
	c-0.2,0-0.3,0.2-0.3,0.3c0,0.2,0.2,0.3,0.3,0.3h13.1c0.2,0,0.3-0.2,0.3-0.3C263.2,75.8,263.1,75.7,262.9,75.7z M250.2,73.6h4.8
	c0.4,0,0.7-0.3,0.7-0.6v-0.1v-4.8c0-0.4-0.3-0.7-0.6-0.7H255h-4.8c-0.4,0-0.7,0.3-0.7,0.7v4.8C249.5,73.3,249.8,73.6,250.2,73.6
	C250.1,73.6,250.2,73.6,250.2,73.6z"/>
<path class="st3" d="M293.9,64h-15.1c-1.1,0-2,0.9-2.1,2c0,0,0,0,0,0.1v1.4H276c-1.1,0-2,0.9-2.1,2c0,0,0,0,0,0.1v13.7
	c0,1.5,1.2,2.7,2.7,2.7h16.5c1.5,0,2.7-1.2,2.7-2.7V66.1C296,64.9,295.1,64,293.9,64C294,64,294,64,293.9,64z M294.6,83.3
	c0,0.8-0.6,1.4-1.4,1.4h-16.5c-0.8,0-1.4-0.6-1.4-1.4V69.5c0-0.4,0.3-0.7,0.6-0.7h0.1h0.7v13.7c0,0.4,0.3,0.7,0.6,0.7h0.1
	c0.4,0,0.7-0.3,0.7-0.6v-0.1V66.1c0-0.4,0.3-0.7,0.6-0.7h0.1h15.1c0.4,0,0.7,0.3,0.7,0.6v0.1L294.6,83.3L294.6,83.3z M287.4,73.6
	h5.5c0.2,0,0.3-0.2,0.3-0.3S293,73,292.9,73h-5.5c-0.2,0-0.3,0.2-0.3,0.3S287.2,73.6,287.4,73.6z M287.4,70.9h5.5
	c0.2,0,0.3-0.2,0.3-0.3c0-0.2-0.2-0.3-0.3-0.3h-5.5c-0.2,0-0.3,0.2-0.3,0.3C287.1,70.7,287.2,70.9,287.4,70.9z M287.4,68.1h5.5
	c0.2,0,0.3-0.2,0.3-0.3c0-0.2-0.2-0.3-0.3-0.3h-5.5c-0.2,0-0.3,0.2-0.3,0.3C287.1,68,287.2,68.1,287.4,68.1z M285.3,81.2h-5.5
	c-0.2,0-0.3,0.2-0.3,0.3c0,0.2,0.2,0.3,0.3,0.3h5.5c0.2,0,0.3-0.2,0.3-0.3C285.7,81.3,285.5,81.2,285.3,81.2z M285.3,78.4h-5.5
	c-0.2,0-0.3,0.2-0.3,0.3c0,0.2,0.2,0.3,0.3,0.3h5.5c0.2,0,0.3-0.2,0.3-0.3C285.7,78.6,285.5,78.4,285.3,78.4z M292.9,81.2h-5.5
	c-0.2,0-0.3,0.2-0.3,0.3c0,0.2,0.2,0.3,0.3,0.3h5.5c0.2,0,0.3-0.2,0.3-0.3C293.2,81.3,293.1,81.2,292.9,81.2z M292.9,78.4h-5.5
	c-0.2,0-0.3,0.2-0.3,0.3c0,0.2,0.2,0.3,0.3,0.3h5.5c0.2,0,0.3-0.2,0.3-0.3C293.2,78.6,293.1,78.4,292.9,78.4z M292.9,75.7h-13.1
	c-0.2,0-0.3,0.2-0.3,0.3c0,0.2,0.2,0.3,0.3,0.3h13.1c0.2,0,0.3-0.2,0.3-0.3C293.2,75.8,293.1,75.7,292.9,75.7z M280.2,73.6h4.8
	c0.4,0,0.7-0.3,0.7-0.6v-0.1v-4.8c0-0.4-0.3-0.7-0.6-0.7H285h-4.8c-0.4,0-0.7,0.3-0.7,0.7v4.8C279.5,73.3,279.8,73.6,280.2,73.6
	C280.1,73.6,280.2,73.6,280.2,73.6z"/>
<path class="st4" d="M248.2,103.9h0.5v-3.4h-0.5c-0.3,0-0.5-0.2-0.5-0.5v-1c0-0.3,0.2-0.5,0.5-0.5h2.6c0.3,0,0.5,0.2,0.5,0.5v5h0.5
	c0.3,0,0.5,0.2,0.5,0.5v1.1c0,0.3-0.2,0.5-0.5,0.5h-3.6c-0.3,0-0.5-0.2-0.5-0.5v-1.1C247.8,104.2,248,103.9,248.2,103.9z M250,94
	c-0.9,0-1.7,0.8-1.7,1.7s0.8,1.7,1.7,1.7s1.7-0.8,1.7-1.7S250.9,94,250,94z"/>
<path class="st3" d="M268.2,103.9h0.5v-3.4h-0.5c-0.3,0-0.5-0.2-0.5-0.5v-1c0-0.3,0.2-0.5,0.5-0.5h2.6c0.3,0,0.5,0.2,0.5,0.5v5h0.5
	c0.3,0,0.5,0.2,0.5,0.5v1.1c0,0.3-0.2,0.5-0.5,0.5h-3.6c-0.3,0-0.5-0.2-0.5-0.5v-1.1C267.8,104.2,268,103.9,268.2,103.9z M270,94
	c-0.9,0-1.7,0.8-1.7,1.7s0.8,1.7,1.7,1.7s1.7-0.8,1.7-1.7S270.9,94,270,94z"/>
<path class="st3" d="M296,105v0.5c0,0.8-0.7,1.5-1.5,1.5h-12c-0.8,0-1.5-0.7-1.5-1.5v-8c0-0.8,0.7-1.5,1.5-1.5h0.5v6.5
	c0,1.4,1.1,2.5,2.5,2.5H296z M299,102.5v-8c0-0.8-0.7-1.5-1.5-1.5h-12c-0.8,0-1.5,0.7-1.5,1.5v8c0,0.8,0.7,1.5,1.5,1.5h12
	C298.3,104,299,103.3,299,102.5z M289,96c0,0.8-0.7,1.5-1.5,1.5S286,96.8,286,96s0.7-1.5,1.5-1.5S289,95.2,289,96z M286,100.5
	l1.7-1.7c0.1-0.1,0.4-0.1,0.5,0l1.2,1.2l4.2-4.2c0.1-0.1,0.4-0.1,0.5,0l2.7,2.7v3.5h-11v-1.5H286z"/>
<path class="st3" d="M7,141h16v-2H7V141z M7,136h16v-2H7V136z M7,129v2h16v-2H7z"/>
<g>
	<circle id="Elipse_17" class="st3" cx="254.9" cy="135" r="1.9"/>
	<path id="Trazado_256" class="st3" d="M253.1,129.2l-1.1,1.2h-1.8c-0.6,0-1.2,0.5-1.2,1.2v7c0,0.6,0.5,1.2,1.2,1.2h9.3
		c0.6,0,1.2-0.5,1.2-1.2v-7c0-0.6-0.5-1.2-1.2-1.2h-1.8l-1.1-1.2H253.1z M254.9,137.9c-1.6,0-2.9-1.3-2.9-2.9c0-1.6,1.3-2.9,2.9-2.9
		c1.6,0,2.9,1.3,2.9,2.9l0,0C257.8,136.6,256.5,137.9,254.9,137.9z"/>
	<path id="Trazado_257" class="st7" d="M247.9,128h14v14h-14V128z"/>
</g>
<g>
	<circle id="Elipse_17_1_" class="st13" cx="284.9" cy="135" r="1.9"/>
	<path id="Trazado_256_1_" class="st13" d="M283.1,129.2l-1.1,1.2h-1.8c-0.6,0-1.2,0.5-1.2,1.2v7c0,0.6,0.5,1.2,1.2,1.2h9.3
		c0.6,0,1.2-0.5,1.2-1.2v-7c0-0.6-0.5-1.2-1.2-1.2h-1.8l-1.1-1.2H283.1z M284.9,137.9c-1.6,0-2.9-1.3-2.9-2.9c0-1.6,1.3-2.9,2.9-2.9
		s2.9,1.3,2.9,2.9l0,0C287.8,136.6,286.5,137.9,284.9,137.9z"/>
	<path id="Trazado_257_1_" class="st7" d="M277.9,128h14v14h-14V128z"/>
</g>
<path id="Trazado_424" class="st3" d="M54.3,137.4l-1.7-1c0.2-0.9,0.2-1.9,0-2.8l1.7-1c0.2-0.1,0.3-0.3,0.2-0.6
	c-0.4-1.4-1.2-2.7-2.2-3.8c-0.2-0.2-0.4-0.2-0.6-0.1l-1.7,1c-0.7-0.6-1.5-1.1-2.4-1.4v-2c0-0.2-0.2-0.4-0.4-0.5
	c-1.4-0.3-3-0.3-4.4,0c-0.2,0-0.4,0.2-0.4,0.5v2c-0.9,0.3-1.7,0.8-2.5,1.4l-1.7-1c-0.2-0.1-0.4-0.1-0.6,0.1c-1,1.1-1.8,2.4-2.2,3.8
	c-0.1,0.2,0,0.5,0.2,0.6l1.7,1c-0.2,0.9-0.2,1.9,0,2.8l-1.7,1c-0.2,0.1-0.3,0.3-0.2,0.6c0.4,1.4,1.2,2.7,2.2,3.8
	c0.2,0.2,0.4,0.2,0.6,0.1l1.7-1c0.7,0.6,1.5,1.1,2.4,1.4v2c0,0.2,0.2,0.4,0.4,0.5c1.4,0.3,3,0.3,4.4,0c0.2,0,0.4-0.2,0.4-0.5v-2
	c0.9-0.3,1.7-0.8,2.5-1.4l1.7,1c0.2,0.1,0.4,0.1,0.6-0.1c1-1.1,1.8-2.4,2.2-3.8C54.6,137.7,54.5,137.5,54.3,137.4z M45,138.2
	c-1.8,0-3.2-1.4-3.2-3.2s1.4-3.2,3.2-3.2s3.2,1.4,3.2,3.2l0,0C48.2,136.8,46.8,138.2,45,138.2L45,138.2z"/>
<path id="iconfinder_expand_1608683" class="st3" d="M75.2,136.9c0,0.1,0,0.2,0.1,0.3l3.9,3.9l-1.7,1.7c-0.3,0.3-0.3,0.8,0,1.1
	c0.1,0.1,0.3,0.2,0.5,0.2h5.2c0.4,0,0.7-0.3,0.8-0.8V138c0-0.4-0.3-0.7-0.7-0.7c-0.2,0-0.4,0.1-0.5,0.2l-1.7,1.7l-3.9-3.9
	c-0.1-0.1-0.4-0.2-0.5,0l0,0l-1.3,1.3C75.2,136.7,75.2,136.8,75.2,136.9z M66,126.7v5.2c0,0.4,0.3,0.7,0.7,0.7
	c0.2,0,0.4-0.1,0.5-0.2l1.7-1.7l3.9,3.9c0.1,0.1,0.4,0.2,0.5,0l0,0l1.3-1.3c0.1-0.1,0.2-0.4,0-0.5l0,0l-3.9-3.9l1.7-1.7
	c0.3-0.3,0.3-0.8,0-1.1c-0.1-0.1-0.3-0.2-0.5-0.2h-5.2C66.3,126,66,126.3,66,126.7z"/>
<g id="iconfinder_sun-symbol_110801" transform="translate(-48 -48)">
	<g id="Grupo_2006" transform="translate(48 48)">
		<path id="Trazado_262" class="st1" d="M164.7,129.6c-3,0-5.4,2.4-5.4,5.4s2.4,5.4,5.4,5.4s5.4-2.4,5.4-5.4l0,0
			C170.1,132,167.7,129.6,164.7,129.6z M164.7,138.8c-2.1,0-3.8-1.7-3.8-3.8s1.7-3.8,3.8-3.8s3.8,1.7,3.8,3.8
			S166.8,138.8,164.7,138.8L164.7,138.8z M164.7,128.1c0.4,0,0.8-0.3,0.8-0.8l0,0v-1.5c0-0.4-0.3-0.8-0.8-0.8
			c-0.4,0-0.8,0.3-0.8,0.8v1.5C163.9,127.7,164.3,128.1,164.7,128.1L164.7,128.1z M164.7,141.9c-0.4,0-0.8,0.3-0.8,0.8v1.5
			c0,0.4,0.3,0.8,0.8,0.8s0.8-0.3,0.8-0.8l0,0v-1.5C165.5,142.3,165.1,141.9,164.7,141.9L164.7,141.9z M170.7,130.1l1.1-1.1
			c0.3-0.3,0.3-0.8,0-1.1c-0.3-0.3-0.8-0.3-1.1,0l-1.1,1.1c-0.3,0.3-0.3,0.8,0,1.1C169.9,130.4,170.4,130.4,170.7,130.1L170.7,130.1
			z M158.7,139.9l-1.1,1.1c-0.3,0.3-0.3,0.8,0,1.1s0.8,0.3,1.1,0l0,0l1.1-1.1c0.3-0.3,0.3-0.8,0-1.1
			C159.5,139.6,159,139.6,158.7,139.9z M157.8,135c0-0.4-0.3-0.8-0.8-0.8l0,0h-1.5c-0.4,0-0.8,0.3-0.8,0.8c0,0.4,0.3,0.8,0.8,0.8
			h1.5C157.4,135.8,157.8,135.4,157.8,135L157.8,135z M173.9,134.2h-1.5c-0.4,0-0.8,0.3-0.8,0.8c0,0.4,0.3,0.8,0.8,0.8h1.5
			c0.4,0,0.8-0.3,0.8-0.8C174.7,134.6,174.3,134.2,173.9,134.2L173.9,134.2L173.9,134.2z M158.7,130.1c0.3,0.3,0.8,0.2,1.1-0.1
			c0.2-0.3,0.2-0.7,0-1l-1.1-1.1c-0.3-0.3-0.8-0.3-1.1,0c-0.3,0.3-0.3,0.8,0,1.1L158.7,130.1z M170.7,139.9c-0.3-0.3-0.8-0.3-1.1,0
			s-0.3,0.8,0,1.1l1.1,1.1c0.3,0.3,0.8,0.3,1.1,0s0.3-0.8,0-1.1L170.7,139.9z"/>
	</g>
</g>
<g id="iconfinder_sun-symbol_110801_1_" transform="translate(-48 -48)">
	<g id="Grupo_2006_1_" transform="translate(48 48)">
		<path id="Trazado_262_1_" class="st0" d="M134.9,129.6c-3,0-5.4,2.4-5.4,5.4s2.4,5.4,5.4,5.4s5.4-2.4,5.4-5.4l0,0
			C140.3,132,137.9,129.6,134.9,129.6z M134.9,138.8c-2.1,0-3.8-1.7-3.8-3.8s1.7-3.8,3.8-3.8s3.8,1.7,3.8,3.8
			S137.1,138.8,134.9,138.8L134.9,138.8z M134.9,128.1c0.4,0,0.8-0.3,0.8-0.8l0,0v-1.5c0-0.4-0.3-0.8-0.8-0.8
			c-0.4,0-0.8,0.3-0.8,0.8v1.5C134.2,127.7,134.5,128.1,134.9,128.1L134.9,128.1z M134.9,141.9c-0.4,0-0.8,0.3-0.8,0.8v1.5
			c0,0.4,0.3,0.8,0.8,0.8s0.8-0.3,0.8-0.8l0,0v-1.5C135.7,142.3,135.4,141.9,134.9,141.9L134.9,141.9z M140.9,130.1l1.1-1.1
			c0.3-0.3,0.3-0.8,0-1.1c-0.3-0.3-0.8-0.3-1.1,0l-1.1,1.1c-0.3,0.3-0.3,0.8,0,1.1C140.1,130.4,140.6,130.4,140.9,130.1L140.9,130.1
			z M128.9,139.9l-1.1,1.1c-0.3,0.3-0.3,0.8,0,1.1c0.3,0.3,0.8,0.3,1.1,0l0,0l1.1-1.1c0.3-0.3,0.3-0.8,0-1.1
			C129.7,139.6,129.2,139.6,128.9,139.9z M128,135c0-0.4-0.3-0.8-0.8-0.8l0,0h-1.5c-0.4,0-0.8,0.3-0.8,0.8c0,0.4,0.3,0.8,0.8,0.8
			h1.5C127.7,135.8,128,135.4,128,135L128,135z M144.2,134.2h-1.5c-0.4,0-0.8,0.3-0.8,0.8c0,0.4,0.3,0.8,0.8,0.8h1.5
			c0.4,0,0.8-0.3,0.8-0.8C144.9,134.6,144.6,134.2,144.2,134.2L144.2,134.2L144.2,134.2z M128.9,130.1c0.3,0.3,0.8,0.2,1.1-0.1
			c0.2-0.3,0.2-0.7,0-1l-1.1-1.1c-0.3-0.3-0.8-0.3-1.1,0c-0.3,0.3-0.3,0.8,0,1.1L128.9,130.1z M140.9,139.9c-0.3-0.3-0.8-0.3-1.1,0
			s-0.3,0.8,0,1.1l1.1,1.1c0.3,0.3,0.8,0.3,1.1,0s0.3-0.8,0-1.1L140.9,139.9z"/>
	</g>
</g>
<path id="iconfinder_moon-symbol_110827" class="st0" d="M200.2,139.9c-2.8,2.8-7.3,2.9-10.2,0.1s-2.9-7.3-0.1-10.2
	c0.8-0.8,1.7-1.4,2.8-1.7c0.5-0.2,1,0.1,1.1,0.6c0.1,0.2,0.1,0.4,0,0.6c-1,2.8,0.4,5.9,3.2,6.9c1.2,0.4,2.5,0.4,3.6,0
	c0.5-0.2,1,0.1,1.1,0.6c0.1,0.2,0.1,0.4,0,0.6C201.5,138.2,201,139.1,200.2,139.9z M191.3,131c-2.1,2.1-2.1,5.5,0,7.6s5.5,2.1,7.6,0
	c0.1-0.1,0.3-0.3,0.4-0.5c-3.9,0.2-7.3-2.8-7.6-6.7c0-0.3,0-0.6,0-0.9C191.6,130.7,191.5,130.8,191.3,131L191.3,131z"/>
<path id="iconfinder_moon-symbol_110827_1_" class="st1" d="M230.2,139.9c-2.8,2.8-7.3,2.9-10.2,0.1s-2.9-7.3-0.1-10.2
	c0.8-0.8,1.7-1.4,2.8-1.7c0.5-0.2,1,0.1,1.1,0.6c0.1,0.2,0.1,0.4,0,0.6c-1,2.8,0.4,5.9,3.2,6.9c1.2,0.4,2.5,0.4,3.6,0
	c0.5-0.2,1,0.1,1.1,0.6c0.1,0.2,0.1,0.4,0,0.6C231.5,138.2,231,139.1,230.2,139.9z M221.3,131c-2.1,2.1-2.1,5.5,0,7.6s5.5,2.1,7.6,0
	c0.1-0.1,0.3-0.3,0.4-0.5c-3.9,0.2-7.3-2.8-7.6-6.7c0-0.3,0-0.6,0-0.9C221.6,130.7,221.5,130.8,221.3,131L221.3,131z"/>
<path id="XMLID_6_" class="st14" d="M82.2,161.2c0,0.2,0,0.3,0,0.5c0,4.9-3.7,10.5-10.5,10.5c-2.1,0-4-0.6-5.7-1.7
	c0.3,0,0.6,0.1,0.9,0.1c1.7,0,3.3-0.6,4.6-1.6c-1.6,0-3-1.1-3.4-2.6c0.2,0,0.5,0.1,0.7,0.1c0.3,0,0.7,0,1-0.1c-1.7-0.3-3-1.8-3-3.6
	l0,0c0.5,0.3,1.1,0.4,1.7,0.5c-1-0.7-1.6-1.8-1.6-3.1c0-0.7,0.2-1.3,0.5-1.9c1.8,2.2,4.5,3.7,7.6,3.9c-0.1-0.3-0.1-0.6-0.1-0.8
	c0-2,1.7-3.7,3.7-3.7c1.1,0,2,0.4,2.7,1.2c0.7-0.3,1.5-0.6,2.2-1c-0.3,0.9-0.9,1.6-1.6,2c0.7-0.1,1.5-0.3,2.1-0.6
	C83.5,160.1,82.9,160.8,82.2,161.2z"/>
<path id="XMLID_7_" class="st15" d="M112.2,161.2c0,0.2,0,0.3,0,0.5c0,4.9-3.7,10.5-10.5,10.5c-2.1,0-4-0.6-5.7-1.7
	c0.3,0,0.6,0.1,0.9,0.1c1.7,0,3.3-0.6,4.6-1.6c-1.6,0-3-1.1-3.4-2.6c0.2,0,0.5,0.1,0.7,0.1c0.3,0,0.7,0,1-0.1c-1.7-0.3-3-1.8-3-3.6
	l0,0c0.5,0.3,1.1,0.4,1.7,0.5c-1-0.7-1.6-1.8-1.6-3.1c0-0.7,0.2-1.3,0.5-1.9c1.8,2.2,4.5,3.7,7.6,3.9c-0.1-0.3-0.1-0.6-0.1-0.8
	c0-2,1.7-3.7,3.7-3.7c1.1,0,2,0.4,2.7,1.2c0.7-0.3,1.5-0.6,2.2-1c-0.3,0.9-0.9,1.6-1.6,2c0.7-0.1,1.5-0.3,2.1-0.6
	C113.5,160.1,112.9,160.8,112.2,161.2z"/>
<path id="XMLID_8_" class="st16" d="M20,159.1h-2.9c-0.3,0-0.7,0.4-0.7,1v2.1H20l-0.5,2.9h-3v8.9h-3.4v-8.8H10v-2.9h3.1v-1.7
	c0-2.6,1.7-4.6,4-4.6H20V159.1z"/>
<path id="XMLID_9_" class="st15" d="M50,159.1h-2.9c-0.3,0-0.7,0.4-0.7,1v2.1H50l-0.5,2.9h-3v8.9h-3.4v-8.8H40v-2.9h3.1v-1.7
	c0-2.6,1.7-4.6,4-4.6H50V159.1z"/>
<g>
	<path class="st17" d="M134.9,156c-4.9,0-8.9,3.7-8.9,8.3c0,2.4,1.1,4.7,3.1,6.3v3.4l3.3-1.7c0.8,0.2,1.6,0.3,2.5,0.3
		c4.9,0,8.9-3.7,8.9-8.3C143.8,159.7,139.8,156,134.9,156z M135.8,167l-2.2-2.4l-4.2,2.4l4.6-4.9l2.3,2.3l4.1-2.3L135.8,167z"/>
</g>
<g>
	<path class="st15" d="M164.9,156c-4.9,0-8.9,3.7-8.9,8.3c0,2.4,1.1,4.7,3.1,6.3v3.4l3.3-1.7c0.8,0.2,1.6,0.3,2.5,0.3
		c4.9,0,8.9-3.7,8.9-8.3S169.8,156,164.9,156z M165.8,167l-2.2-2.4l-4.2,2.4l4.6-4.9l2.3,2.3l4.1-2.3L165.8,167z"/>
</g>
<g id="Page-1">
	<path id="whatsup" class="st18" d="M195.1,156c-4.8,0-8.8,3.9-8.8,8.8c0,1.7,0.5,3.2,1.3,4.5L186,174l4.9-1.6
		c1.3,0.7,2.7,1.1,4.2,1.1c4.8,0,8.8-3.9,8.8-8.8C203.8,159.9,199.9,156,195.1,156L195.1,156z M195.1,172.1c-1.5,0-2.9-0.4-4.1-1.2
		l-2.8,0.9l0.9-2.7c-0.9-1.2-1.4-2.7-1.4-4.3c0-4.1,3.3-7.4,7.4-7.4c4.1,0,7.4,3.3,7.4,7.4C202.4,168.8,199.1,172.1,195.1,172.1z
		 M193,161.1c-0.1-0.3-0.3-0.4-0.5-0.4c-0.1,0-0.2,0-0.2,0c-0.3,0-0.6,0.1-0.8,0.3s-0.8,0.7-0.8,1.8s0.8,2.1,0.9,2.2
		c0.1,0.1,1.5,2.3,3.7,3.2c1.7,0.7,2.2,0.6,2.6,0.6c0.6-0.1,1.3-0.5,1.4-1c0.2-0.5,0.2-0.9,0.1-1c-0.1-0.1-0.2-0.1-0.4-0.3
		c-0.2-0.1-1.3-0.6-1.5-0.7c-0.2-0.1-0.4,0-0.5,0.2c-0.2,0.3-0.4,0.6-0.6,0.8c-0.1,0.1-0.3,0.2-0.5,0.1c-0.2-0.1-0.9-0.3-1.7-1.1
		c-0.6-0.6-1.1-1.3-1.2-1.5s0-0.3,0.1-0.5c0.1-0.1,0.2-0.2,0.3-0.4c0.1-0.1,0.2-0.2,0.2-0.3c0.1-0.1,0-0.3,0-0.4
		C193.6,162.6,193.2,161.6,193,161.1z"/>
</g>
<g id="Page-1_1_">
	<path id="whatsup_1_" class="st15" d="M225.1,156c-4.8,0-8.8,3.9-8.8,8.8c0,1.7,0.5,3.2,1.3,4.5L216,174l4.9-1.6
		c1.3,0.7,2.7,1.1,4.2,1.1c4.8,0,8.8-3.9,8.8-8.8C233.8,159.9,229.9,156,225.1,156L225.1,156z M225.1,172.1c-1.5,0-2.9-0.4-4.1-1.2
		l-2.8,0.9l0.9-2.7c-0.9-1.2-1.4-2.7-1.4-4.3c0-4.1,3.3-7.4,7.4-7.4c4.1,0,7.4,3.3,7.4,7.4C232.4,168.8,229.1,172.1,225.1,172.1z
		 M223,161.1c-0.1-0.3-0.3-0.4-0.5-0.4c-0.1,0-0.2,0-0.2,0c-0.3,0-0.6,0.1-0.8,0.3s-0.8,0.7-0.8,1.8s0.8,2.1,0.9,2.2
		c0.1,0.1,1.5,2.3,3.7,3.2c1.7,0.7,2.2,0.6,2.6,0.6c0.6-0.1,1.3-0.5,1.4-1c0.2-0.5,0.2-0.9,0.1-1c-0.1-0.1-0.2-0.1-0.4-0.3
		c-0.2-0.1-1.3-0.6-1.5-0.7c-0.2-0.1-0.4,0-0.5,0.2c-0.2,0.3-0.4,0.6-0.6,0.8c-0.1,0.1-0.3,0.2-0.5,0.1c-0.2-0.1-0.9-0.3-1.7-1.1
		c-0.6-0.6-1.1-1.3-1.2-1.5s0-0.3,0.1-0.5c0.1-0.1,0.2-0.2,0.3-0.4c0.1-0.1,0.2-0.2,0.2-0.3c0.1-0.1,0-0.3,0-0.4
		C223.6,162.6,223.2,161.6,223,161.1z"/>
</g>
<path id="ico-mail" class="st1" d="M262.1,157.8h-14.4c-1,0-1.8,0.8-1.8,1.8v10.8c0,1,0.8,1.8,1.8,1.8h14.4c1,0,1.8-0.8,1.8-1.8
	v-10.8C263.9,158.6,263.1,157.8,262.1,157.8z M262.1,170.4h-14.4v-9l7.2,4.5l7.2-4.5V170.4z M254.9,164.1l-7.2-4.5h14.4L254.9,164.1
	z"/>
<path id="ico-mail_1_" class="st12" d="M292.1,157.8h-14.4c-1,0-1.8,0.8-1.8,1.8v10.8c0,1,0.8,1.8,1.8,1.8h14.4c1,0,1.8-0.8,1.8-1.8
	v-10.8C293.9,158.6,293.1,157.8,292.1,157.8z M292.1,170.4h-14.4v-9l7.2,4.5l7.2-4.5L292.1,170.4L292.1,170.4z M284.9,164.1
	l-7.2-4.5h14.4L284.9,164.1z"/>
<path id="Trazado_420" class="st19" d="M110.5,137.8c-0.9,0-1.8,0.3-2.6,0.9l-4.4-2.8c0.1-0.6,0.1-1.2,0-1.8l4.4-2.8
	c1.8,1.4,4.4,1.1,5.8-0.7c1.4-1.8,1.1-4.4-0.7-5.8c-1.8-1.4-4.4-1.1-5.8,0.7c-0.8,1-1.1,2.2-0.8,3.5l-4.4,2.8
	c-1.8-1.4-4.4-1.1-5.8,0.7c-1.4,1.8-1.1,4.4,0.7,5.8c1.5,1.2,3.6,1.2,5.1,0l4.4,2.8c-0.5,2.2,0.9,4.4,3.1,4.9
	c2.2,0.5,4.4-0.9,4.9-3.1c0.5-2.2-0.9-4.4-3.1-4.9C111.1,137.8,110.8,137.8,110.5,137.8z"/>
</svg>
